<svg width="272" height="72" fill="none" xmlns="http://www.w3.org/2000/svg"><path d="M266.032 51.536V29.844h-22.831v9.109h13.184v18.881c.197-.071.397-.138.59-.214 3.586-1.414 6.604-3.44 9.057-6.084Z" fill="#D22027"/><path d="M79 9v51h12V27.442L79 9ZM6.562 19.19h15.477v40.55h11.919V19.19h15.548V8.776H6.562V19.19ZM202.9 26.834l.146 13.613-23.035-31.67h-10.682V59.74h11.844V41.977l-.145-13.76 23.036 31.523h10.68V8.777H202.9v18.056ZM56.119 16.195V59.74h11.917V8.777H56.119v7.418ZM146.295 16.195V59.74h11.917V8.777h-11.917v7.418ZM245.908 18.65c2.174 0 4.29.419 6.35 1.253a15.992 15.992 0 0 1 5.377 3.545l6.87-6.813c-2.545-2.643-5.333-4.612-8.363-5.91-3.029-1.297-6.417-1.948-10.166-1.948-5.18 0-9.773 1.08-13.774 3.234-4.001 2.156-7.112 5.169-9.333 9.038-2.221 3.871-3.331 8.286-3.331 13.245 0 5.099 1.052 9.573 3.158 13.42 2.105 3.847 5.088 6.813 8.951 8.897 3.862 2.086 8.362 3.13 13.498 3.13 2.52 0 4.915-.247 7.186-.735V48.79c-2.003.764-4.306 1.146-6.908 1.146-2.915 0-5.483-.649-7.703-1.946-2.221-1.298-3.932-3.13-5.135-5.493-1.205-2.363-1.805-5.099-1.805-8.203 0-4.82 1.353-8.633 4.059-11.437 2.706-2.804 6.396-4.208 11.069-4.208Z" fill="#F5F5F5"/><path d="M107 30.711 89.663 9H79v4.57l11.823 14.445 7.545 9.217 7.543 9.217h2.321l14.944-18.36V60H135V9h-10.664L107 30.711Z" fill="#F5F5F5"/></svg>